<?xml version="1.0" encoding="utf-8"?>
<!-- Generator: Adobe Illustrator 19.2.1, SVG Export Plug-In . SVG Version: 6.00 Build 0)  -->
<svg version="1.1" id="layer" xmlns="http://www.w3.org/2000/svg" xmlns:xlink="http://www.w3.org/1999/xlink" x="0px" y="0px"
	 viewBox="0 0 652 652" style="enable-background:new 0 0 652 652;" xml:space="preserve">
<style type="text/css">
	.st0{fill:#FF7900;}
	.st1{fill-rule:evenodd;clip-rule:evenodd;fill:#FFFFFF;}
</style>
<path class="st0" d="M205.3,253.2c7,0,12.7,2.3,16.9,7c4.3,4.7,6.4,10.7,6.4,18.1c0,7.2-2.1,13.2-6.4,17.7
	c-4.3,4.6-9.9,6.9-16.9,6.9c-7,0-12.7-2.3-16.9-6.9c-4.3-4.6-6.4-10.5-6.4-17.7c0-7.4,2.2-13.4,6.5-18.1
	C192.8,255.5,198.9,253,205.3,253.2L205.3,253.2z M192.4,278.3c0,4.8,1.1,8.6,3.4,11.5c2.3,2.9,5.8,4.5,9.5,4.4
	c3.7,0.2,7.2-1.4,9.5-4.3c2.3-2.9,3.4-6.7,3.4-11.6c0-5.1-1.1-9.1-3.4-12c-2.3-2.9-5.9-4.5-9.5-4.3c-4,0-7.1,1.4-9.4,4.3
	C193.6,269.2,192.4,273.2,192.4,278.3L192.4,278.3z M254.9,266.5c0.8,0,1.5,0.1,2.1,0.3v8.8c-1.1-0.2-2.3-0.3-3.4-0.3
	c-6.2,0-9.3,3.7-9.3,11.1v15.5h-9.4v-34.4h9v6.4h0.1c0.9-2.2,2.4-4,4.4-5.3C250.3,267.2,252.6,266.5,254.9,266.5L254.9,266.5z
	 M275.5,266.5c10,0,15,3.3,15,9.8v18.2c0,3.4,0.4,5.8,1.2,7.3h-9.6c-0.4-1.1-0.6-2.2-0.7-3.4c-2.8,2.8-6.7,4.3-11.6,4.3
	c-3.6,0-6.4-0.9-8.6-2.7c-2.1-1.9-3.3-4.7-3.2-7.6c-0.2-2.8,0.9-5.5,3-7.3c2.1-1.8,5.8-3,11.1-3.4c3.8-0.4,6.2-0.9,7.3-1.5
	c1-0.6,1.5-1.5,1.5-2.7c0-1.6-0.5-2.7-1.4-3.4c-0.9-0.8-2.5-1.1-4.7-1.1c-2,0-3.5,0.4-4.5,1.2c-1,0.8-1.6,2.1-1.8,4h-9.4
	c0.2-3.8,1.8-6.7,4.6-8.6C266.8,267.5,270.7,266.5,275.5,266.5L275.5,266.5z M267.6,292.1c0,2.9,2,4.4,5.8,4.4
	c5.1,0,7.6-2.6,7.6-7.8V285c-0.7,0.8-2.7,1.3-5.7,1.7c-2,0.1-4,0.7-5.9,1.6C268.3,289.1,267.7,290.3,267.6,292.1L267.6,292.1z
	 M317.6,266.5c4.4,0,7.6,1.1,9.6,3.3c2,2.2,3,5.7,3,10.6v21.4h-9.5v-19.5c0-2.8-0.5-5-1.4-6.3c-0.9-1.4-2.4-2.1-4.7-2.1
	c-2.6,0-4.4,0.8-5.6,2.3c-1.1,1.5-1.7,4.1-1.7,7.7v17.9h-9.4v-34.4h9v4.8h0.2C309.2,268.5,313.3,266.3,317.6,266.5L317.6,266.5z
	 M351,266.5c4.7,0,8.2,1.8,10.2,5.5h0.1v-4.6h9v32.3c0,5-1.5,8.7-4.6,11.3c-3.1,2.6-7.5,3.8-13.2,3.8c-4.4,0-7.9-1-10.7-3.1
	c-2.6-1.8-4.3-4.7-4.5-7.9h9.4c0.7,3.1,3.1,4.7,7,4.7c2.4,0,4.3-0.7,5.6-2.1c1.3-1.4,2-3.5,2-6.1v-4.7h-0.1c-0.9,1.7-2.3,3-4.1,3.9
	c-1.8,0.9-3.9,1.4-6.2,1.4c-4.1,0.2-8.1-1.5-10.8-4.5c-2.6-3-3.9-7.3-3.9-12.8c0-4.9,1.4-8.9,4.1-12.2
	C342.9,268.2,346.9,266.4,351,266.5L351,266.5z M345.7,283.4c0,3.2,0.7,5.7,2,7.6c1.4,1.8,3.2,2.8,5.6,2.8c2.5,0,4.4-0.9,5.9-2.6
	c1.5-1.8,2.2-4.1,2.2-7c0-3.4-0.7-6.1-2.1-7.8c-1.5-1.8-3.7-2.8-6-2.7c-2.4,0-4.3,0.9-5.6,2.7C346.3,278.5,345.6,280.9,345.7,283.4
	L345.7,283.4z M393.9,266.5c6.2-0.2,11.9,3.2,14.6,8.8c1.8,3.6,2.5,7.6,2.1,11.6h-24.8c0.1,2.7,0.8,4.9,2.2,6.4
	c1.4,1.5,3.4,2.3,6.2,2.3c1.7,0,3.3-0.4,4.8-1.3c1.3-0.7,2.3-1.8,2.7-3.2h8.3c-2.4,7.7-7.8,11.6-16.1,11.6c-3,0-6-0.7-8.7-2.1
	c-2.7-1.4-5-3.5-6.4-6.2c-1.6-3-2.5-6.4-2.4-9.8c0-3.5,0.8-6.7,2.4-9.6c1.5-2.7,3.7-5,6.5-6.4C387.9,267.2,390.8,266.5,393.9,266.5
	L393.9,266.5z M401.1,280.9c-0.2-2.1-1.1-4-2.5-5.6c-1.4-1.2-3.2-1.8-5.1-1.7c-2.3,0-4.1,0.7-5.5,2c-1.4,1.4-2.2,3.3-2.3,5.4H401.1
	L401.1,280.9z M401.1,280.9"/>
<path d="M205.3,319.7c5.6,0,10.2,1.6,14,4.7c3.7,3.1,6.1,7.6,6.5,12.4h-10.1c-0.4-2.4-1.6-4.5-3.5-5.9c-1.9-1.6-4.4-2.4-6.9-2.4
	c-4.1,0-7.2,1.5-9.5,4.4c-2.3,2.9-3.4,6.9-3.4,11.9c0,4.9,1.1,8.7,3.4,11.6c2.3,2.9,5.8,4.5,9.5,4.3c3,0,5.5-0.9,7.3-2.7
	c2-2.2,3.2-4.9,3.4-7.9h10.1c-0.5,6-2.7,10.8-6.5,14.2c-4,3.5-9.1,5.4-14.4,5.2c-7,0-12.6-2.3-16.9-6.9c-4.3-4.6-6.4-10.6-6.4-17.8
	c0-7.4,2.1-13.4,6.4-18.1C192.6,322.1,198.3,319.7,205.3,319.7L205.3,319.7z M238.4,334l7.8,23.5h0.1l7.5-23.5h9.8l-14.4,38.7
	c-0.8,2.4-2.2,4.4-4.2,5.9c-1.8,1.2-4.3,1.9-7.5,1.9c-1.4,0-3.3-0.1-5.9-0.3v-7.8c1.7,0.2,3.3,0.3,5,0.3c1.2,0.1,2.3-0.4,3.1-1.2
	c0.7-0.8,1.1-1.8,1.1-3.1c0-0.7-0.1-1.4-0.4-2.1L228.3,334L238.4,334L238.4,334z M276.3,320.9v17.3h0.1c1.1-1.6,2.6-2.9,4.4-3.7
	c1.9-0.9,4-1.4,6.5-1.4c4.2,0,7.6,1.7,10.3,5c2.7,3.4,4,7.7,4,13.1c0,5.4-1.3,9.7-3.9,13.1c-2.4,3.3-6.3,5.2-10.4,5
	c-5.6,0-9.3-1.8-11.2-5.3h-0.1v4.4h-9v-47.5L276.3,320.9L276.3,320.9z M276,351.2c0,3.3,0.7,6,2.2,8c1.3,1.9,3.5,3.1,5.9,3
	c2.4,0,4.3-1,5.8-2.9c1.5-1.9,2.2-4.6,2.2-8c0-3.4-0.7-6.1-2.2-8.1c-1.3-1.9-3.6-3.1-6-3c-2.5,0-4.4,1-5.9,3
	C276.6,345.6,275.8,348.4,276,351.2L276,351.2z M323.4,333c6.2-0.3,11.9,3.2,14.6,8.8c1.8,3.6,2.5,7.6,2.1,11.6h-24.8
	c0.1,2.8,0.8,4.9,2.2,6.4c1.3,1.5,3.4,2.3,6.2,2.3c1.7,0,3.3-0.4,4.8-1.3c1.3-0.7,2.3-1.8,2.8-3.2h8.3c-2.4,7.7-7.8,11.6-16.1,11.6
	c-3,0-6-0.7-8.8-2.1c-2.7-1.4-5-3.5-6.4-6.2c-1.7-3-2.5-6.4-2.4-9.9c0-3.3,0.8-6.6,2.4-9.6c1.5-2.7,3.7-5,6.4-6.5
	C317.4,333.7,320.4,333,323.4,333L323.4,333z M330.7,347.5c-0.2-2.1-1.1-4-2.5-5.6c-1.4-1.2-3.2-1.8-5.1-1.7c-2.3,0-4.1,0.6-5.5,1.9
	c-1.4,1.4-2.2,3.4-2.3,5.4H330.7z M365.8,333c0.8,0,1.5,0.1,2.1,0.3v8.8c-1-0.2-2.2-0.3-3.4-0.3c-6.2,0-9.3,3.7-9.3,11.1v15.5h-9.4
	V334h9v6.4h0.1c0.9-2.2,2.4-4,4.4-5.3C361.2,333.7,363.4,333,365.8,333L365.8,333z M404.6,320.9v47.5h-9V364h-0.1
	c-2.1,3.5-5.5,5.3-10.4,5.3c-4.4,0.2-8.6-1.8-11.3-5.2c-2.9-3.8-4.3-8.5-4.1-13.2c0-5.3,1.4-9.5,4.2-12.8c2.7-3.3,6.8-5.1,11-5
	c2.1,0,4.1,0.4,5.9,1.3c1.8,0.9,3.3,2.1,4.3,3.8h0.1v-17.3H404.6z M379,351.1c0,3.2,0.7,5.8,2.2,7.9c1.4,2,3.7,3.2,6.1,3.2
	c2.7,0,4.7-1,6.1-3c1.3-2,2-4.7,2-8.1c0-3.4-0.7-6.1-2.1-8c-1.4-1.9-3.7-3-6.1-2.9c-2.7,0-4.7,1-6.2,3
	C379.6,345.5,378.9,348.3,379,351.1L379,351.1z M427.6,333c6.2-0.2,11.9,3.2,14.6,8.8c1.8,3.6,2.5,7.6,2.1,11.6h-24.8
	c0.1,2.8,0.8,4.9,2.2,6.4c1.4,1.5,3.4,2.3,6.2,2.3c1.7,0,3.3-0.4,4.8-1.3c1.3-0.7,2.2-1.8,2.7-3.2h8.3c-2.4,7.7-7.8,11.6-16.1,11.6
	c-3,0-6-0.7-8.8-2.1c-2.7-1.4-5-3.5-6.4-6.2c-1.6-3-2.5-6.4-2.4-9.9c0-3.3,0.8-6.6,2.4-9.6c1.5-2.7,3.7-5,6.5-6.5
	C421.6,333.8,424.6,333,427.6,333L427.6,333z M434.8,347.5c-0.2-2.1-1.1-4-2.4-5.6c-1.4-1.2-3.2-1.8-5.1-1.7c-2.3,0-4.1,0.6-5.4,1.9
	c-1.4,1.4-2.2,3.4-2.3,5.4H434.8z M463.5,320.9c0.8,0,2.5,0.1,5,0.3v7c-1.1-0.1-2.3-0.2-3.4-0.2c-1.4,0-2.3,0.3-2.9,0.9
	c-0.6,0.6-0.8,1.6-0.8,3.1v2h6.5v6.3h-6.5v28.1h-9.4v-28.1h-5.6V334h5.6v-2.5c0-3.4,1-6,3-7.8C457,321.8,459.8,320.9,463.5,320.9
	L463.5,320.9z M488,333c6.2-0.2,11.9,3.2,14.6,8.8c1.7,3.6,2.5,7.6,2.1,11.6h-24.8c0.1,2.8,0.8,4.9,2.2,6.4c1.4,1.5,3.4,2.3,6.2,2.3
	c1.7,0,3.3-0.4,4.7-1.3c1.3-0.7,2.3-1.8,2.8-3.2h8.3c-2.4,7.7-7.8,11.6-16.1,11.6c-3,0-6-0.7-8.8-2.1c-2.7-1.4-5-3.5-6.4-6.2
	c-1.6-3-2.5-6.4-2.4-9.9c0-3.3,0.8-6.6,2.4-9.6c1.5-2.7,3.7-5,6.4-6.5C481.9,333.8,484.9,333,488,333L488,333z M495.2,347.5
	c-0.2-2.1-1.1-4-2.5-5.6c-1.4-1.2-3.2-1.8-5.1-1.7c-2.3,0-4.1,0.6-5.5,1.9c-1.4,1.5-2.2,3.4-2.3,5.4H495.2L495.2,347.5z M530,333
	c4.4,0,7.6,1.1,9.5,3.3c2,2.2,3,5.7,3,10.6v21.4H533v-19.5c0-2.8-0.5-4.9-1.4-6.3c-0.9-1.4-2.5-2.1-4.7-2.1c-2.6,0-4.4,0.8-5.6,2.3
	c-1.1,1.6-1.7,4.1-1.7,7.7v17.9h-9.4V334h9v4.8h0.2C521.6,335,525.7,332.8,530,333L530,333z M563.8,333c4.6,0,8.2,0.9,10.8,2.8
	c2.6,1.9,4,4.6,4.4,8.2h-9c-0.1-1.6-0.7-2.8-1.8-3.5c-1.4-0.8-3-1.2-4.7-1.1c-1.4-0.1-2.7,0.2-4,0.8c-0.9,0.6-1.3,1.3-1.3,2.4
	c0,0.8,0.3,1.4,0.9,2c0.6,0.5,1.4,1,2.6,1.4c1.1,0.4,2.5,0.7,3.9,1c4.3,0.8,7.3,1.7,9.1,2.6c1.8,0.9,3.1,2,3.9,3.2
	c0.8,1.2,1.2,2.7,1.2,4.6c0.2,3.5-1.4,6.8-4.2,8.9c-2.8,2.1-6.7,3.1-11.5,3.1c-5.1,0-9-1.1-11.8-3.2c-2.8-2.1-4.4-5.4-4.4-8.8h9
	c0,1.8,0.7,3.2,2.1,4.2c1.4,1.1,3.1,1.6,5.2,1.6c1.6,0.1,3.1-0.3,4.4-1.2c1.2-0.8,1.8-1.8,1.8-3.2c0-0.9-0.4-1.6-1.1-2.2
	c-0.9-0.7-2-1.2-3.1-1.5c-1.3-0.5-3.4-1-6.2-1.5c-2-0.4-4-1-5.9-1.8c-1.6-0.6-2.9-1.6-4-3c-0.9-1.2-1.4-2.7-1.4-4.5
	c0-2.3,0.6-4.2,1.7-5.9c1.1-1.7,2.7-3,5-3.8C557.7,333.5,560.5,333,563.8,333L563.8,333z M601.3,333c6.2-0.2,11.9,3.2,14.6,8.8
	c1.8,3.6,2.5,7.6,2.1,11.6h-24.8c0.1,2.8,0.8,4.9,2.2,6.4c1.4,1.5,3.4,2.3,6.2,2.3c1.7,0,3.3-0.4,4.8-1.3c1.3-0.7,2.3-1.8,2.7-3.2
	h8.3c-2.4,7.7-7.8,11.6-16.1,11.6c-3,0-6-0.7-8.7-2.1c-2.7-1.4-5-3.5-6.4-6.2c-1.6-3-2.5-6.4-2.4-9.9c0-3.3,0.8-6.6,2.4-9.6
	c1.5-2.7,3.7-5,6.4-6.5C595.3,333.7,598.3,333,601.3,333L601.3,333z M608.6,347.5c-0.2-2.1-1.1-4-2.4-5.6c-1.4-1.2-3.3-1.8-5.1-1.7
	c-2.3,0-4.1,0.6-5.5,1.9c-1.4,1.5-2.2,3.4-2.3,5.4H608.6L608.6,347.5z M608.6,347.5"/>
<rect x="18.1" y="253.2" class="st0" width="115.1" height="115.1"/>
<path class="st1" d="M120.2,337h1.6v-0.7h-4.1v0.7h1.6v4.6h0.9V337L120.2,337z M127.8,341.6h0.9v-5.3h-1.3l-1.6,4l-1.6-4h-1.3v5.3
	h0.9v-4.4h0l1.7,4.4h0.6l1.7-4.4L127.8,341.6L127.8,341.6z M105.3,350.4c0,5.3,2.8,8.3,7.5,8.3c3.3,0,5.7-1.2,7.1-3.5l-3.1-1.7
	c-1,1.4-2,2-3.6,2c-2.5,0-3.7-1.5-3.8-4.6h10.7v-0.4l0-0.4c0-5.2-2.7-8.1-7.3-8.1C108.2,342,105.3,345.1,105.3,350.4L105.3,350.4z
	 M112.8,344.9c2,0,3.2,1.3,3.2,3.4h-6.5C109.7,346.1,110.9,344.9,112.8,344.9L112.8,344.9z M102.8,357.5v-15.1h-3.5l-0.3,1.8
	c-0.3-0.8-1.5-2.1-4.6-2.1c-3.4,0-6.4,3-6.4,8.3c0,5.4,2.9,8,6.6,8c2.5,0,3.5-1.1,4.1-2.3l0.1,0.1v1.9c0,2.5-1.1,3.5-3.2,3.5
	c-2.4,0-2.8-0.8-3-1.6l-4.2,0.7c0.6,2.7,3.5,4,6.7,4C102.6,364.5,102.8,360.1,102.8,357.5L102.8,357.5z M98.8,349.5
	c0,2.1-0.3,5.4-3.5,5.4c-3.1,0-3.2-3.2-3.2-5.2c0-3.6,1.7-4.7,3.2-4.7C97.5,345,98.8,347.1,98.8,349.5L98.8,349.5z M98.8,349.5
	 M70.6,342.8l3.5-0.5l0.4,1.9c1.9-1.4,3.5-2.2,5.5-2.2c3.3,0,5,1.7,5,5.2v11.1h-4.2V348c0-2-0.5-2.8-2-2.8c-1.3,0-2.5,0.6-3.9,1.8
	v11.5h-4.2V342.8z M70.6,342.8 M57.9,358.6c1.9,0,3.7-0.6,5.3-1.6l0.4,1.4h3.7v-11.6c0-2.9-2.3-4.7-6.5-4.7c-3,0-5.3,1-6.8,3.1
	l2.8,1.6c0.9-1.2,2.4-1.9,3.9-1.8c1.6,0,2.5,0.7,2.5,1.8v0.9c-6.8,0.8-10.1,2.6-10.1,6.2C53.2,356.6,55,358.6,57.9,358.6L57.9,358.6
	z M59.2,355.7c-1.2,0-1.9-1-1.9-2.1c0-1.9,1.8-2.9,5.8-3.4v3.8C61.8,355.1,60.5,355.7,59.2,355.7L59.2,355.7z M59.2,355.7
	 M43.1,342.4h4v1.9c1.1-1.3,2.7-2.1,4.4-2.2l0.6,0v3.9h-0.2c-1.8,0-3.8,0.3-4.4,1.7v10.6h-4.3V342.4L43.1,342.4z M43.1,342.4
	 M24.4,350.4c0,5.8,3.7,8.4,7.9,8.4c4.1,0,7.9-2.6,7.9-8.4c0-5.8-3.8-8.4-7.9-8.4C28.1,342,24.4,344.6,24.4,350.4L24.4,350.4z
	 M28.5,350.4c0-2,0.6-4.9,3.7-4.9c3.1,0,3.7,2.8,3.7,4.9c0,2.1-0.6,4.9-3.7,4.9C29.1,355.3,28.5,352.4,28.5,350.4L28.5,350.4z
	 M28.5,350.4"/>
</svg>
